<svg width="85" height="44" viewBox="0 0 85 44" fill="none" xmlns="http://www.w3.org/2000/svg">
<path d="M2.912 2.8H11.928L26.992 28.056L42.056 2.8H50.848V39.2H42.112V17.08L28.952 39.2H25.032L11.648 16.744V39.2H2.912V2.8Z" fill="#F5F5F5"/>
<path d="M43.912 2.8H73.872C76.4107 2.8 78.576 3.696 80.368 5.488C82.16 7.28 83.056 9.44533 83.056 11.984V12.88C83.056 14.5227 82.6453 16.0347 81.824 17.416C81.04 18.7973 79.976 19.8987 78.632 20.72C80.2373 21.4293 81.5253 22.5493 82.496 24.08C83.504 25.5733 84.008 27.2347 84.008 29.064V30.016C84.008 32.5547 83.112 34.72 81.32 36.512C79.528 38.304 77.3627 39.2 74.824 39.2H43.912V2.8ZM52.648 31.416H72.528C73.2747 31.416 73.9093 31.1547 74.432 30.632C74.992 30.072 75.272 29.4187 75.272 28.672V27.048C75.272 26.3013 74.992 25.6667 74.432 25.144C73.9093 24.6213 73.2747 24.36 72.528 24.36H52.648V31.416ZM52.648 17.808H71.576C72.3227 17.808 72.9573 17.5467 73.48 17.024C74.04 16.464 74.32 15.8107 74.32 15.064V13.328C74.32 12.5813 74.04 11.9467 73.48 11.424C72.9573 10.864 72.3227 10.584 71.576 10.584H52.648V17.808Z" fill="#F5F5F5"/>
</svg>
