<svg width="42" height="42" viewBox="0 0 42 42" fill="none" xmlns="http://www.w3.org/2000/svg">
<g clip-path="url(#clip0_52_1052)">
<path fill-rule="evenodd" clip-rule="evenodd" d="M21 42.0001C9.42055 42.0001 0 32.5795 0 21.0001C0 9.42064 9.42055 9.15527e-05 21 9.15527e-05C32.5794 9.15527e-05 42 9.42064 42 21.0001C42 32.5795 32.5794 42.0001 21 42.0001ZM31.8903 28.3772C32.1492 28.3772 32.3599 28.1666 32.3599 27.9076V14.7238L21.6754 23.2085C21.4777 23.3655 21.2387 23.444 20.9999 23.444C20.7611 23.444 20.5222 23.3655 20.3245 23.2085L9.63998 14.7238V27.9076C9.63998 28.1666 9.85072 28.3772 10.1096 28.3772H31.8903ZM30.253 13.6229L21 20.9709L11.747 13.6229H30.253ZM34.5324 14.0926V27.9078C34.5324 29.3646 33.3471 30.5498 31.8903 30.5498H10.1096C8.65274 30.5498 7.46763 29.3646 7.46763 27.9078V14.0926C7.46763 12.6358 8.65282 11.4506 10.1096 11.4506H31.8903C33.3471 11.4505 34.5324 12.6358 34.5324 14.0926Z" fill="#F5F5F5"/>
</g>
<defs>
<clipPath id="clip0_52_1052">
<rect width="42" height="42" fill="white"/>
</clipPath>
</defs>
</svg>
