<svg width="42" height="42" viewBox="0 0 42 42" fill="none" xmlns="http://www.w3.org/2000/svg">
<g clip-path="url(#clip0_52_1050)">
<path d="M21 9.15527e-05C9.40144 9.15527e-05 0 9.40153 0 21.0001C0 32.5987 9.40275 42.0001 21 42.0001C32.5986 42.0001 42 32.5987 42 21.0001C42 9.40153 32.5986 9.15527e-05 21 9.15527e-05ZM23.7129 24.8851C24.15 25.2644 24.4899 26.6018 24.4899 27.2161V32.6551H21.3859H18.2779C18.2779 32.6551 18.2871 30.811 18.2779 29.5471C14.0254 30.4619 12.8389 27.2161 12.8389 27.2161C12.0619 25.6621 11.2849 24.8851 11.2849 24.8851C9.73087 23.9624 11.2849 24.1081 11.2849 24.1081C12.8389 24.1081 13.6159 25.6621 13.6159 25.6621C14.9796 27.9773 17.4064 27.6046 18.2779 27.2161C18.2779 26.4391 18.6178 25.2644 19.0549 24.8851C15.6607 24.5032 12.8362 22.5541 12.8362 18.6691C12.8362 14.7841 13.6159 14.0071 14.3929 13.2301C14.2354 12.8468 13.5857 11.432 14.4165 9.34509C14.4165 9.34509 15.9429 9.34509 17.4969 11.6761C18.2674 10.9057 20.6049 10.8991 21.3832 10.8991C22.1589 10.8991 24.4978 10.9057 25.2669 11.6761C26.8209 9.34509 28.3513 9.34509 28.3513 9.34509C29.1821 11.432 28.5324 12.8468 28.3749 13.2301C29.1519 14.0071 29.9289 14.7841 29.9289 18.6691C29.9303 22.5541 27.1084 24.5032 23.7129 24.8851Z" fill="#F5F5F5"/>
</g>
<defs>
<clipPath id="clip0_52_1050">
<rect width="42" height="42" fill="white"/>
</clipPath>
</defs>
</svg>
