<svg width="42" height="42" viewBox="0 0 42 42" fill="none" xmlns="http://www.w3.org/2000/svg">
<g clip-path="url(#clip0_52_1053)">
<path d="M21 25.3067C23.3785 25.3067 25.3066 23.3786 25.3066 21.0001C25.3066 18.6216 23.3785 16.6935 21 16.6935C18.6215 16.6935 16.6934 18.6216 16.6934 21.0001C16.6934 23.3786 18.6215 25.3067 21 25.3067Z" fill="#F5F5F5"/>
<path d="M21 0.492279C9.67386 0.492279 0.492188 9.67395 0.492188 21.0001C0.492188 32.3262 9.67386 41.5079 21 41.5079C32.3261 41.5079 41.5078 32.3262 41.5078 21.0001C41.5078 9.67395 32.3261 0.492279 21 0.492279ZM33.6704 26.2124C33.5719 28.1621 33.0241 30.0847 31.6032 31.4905C30.1686 32.9096 28.2368 33.4384 26.2683 33.5359H15.7318C13.763 33.4384 11.8315 32.91 10.3969 31.4905C8.97594 30.0847 8.42814 28.1621 8.3297 26.2124V15.7878C8.42814 13.8381 8.97602 11.9155 10.3969 10.5096C11.8315 9.09047 13.7633 8.56169 15.7318 8.46432H26.2682C28.237 8.56169 30.1685 9.09022 31.6031 10.5096C33.0241 11.9155 33.5719 13.8381 33.6703 15.7878L33.6704 26.2124Z" fill="#F5F5F5"/>
<path d="M26.1352 10.8395C23.5687 10.7691 18.4319 10.7691 15.8655 10.8395C14.5299 10.8762 13.0159 11.2087 12.0643 12.225C11.0755 13.2815 10.7019 14.5579 10.664 15.9858C10.5974 18.4921 10.664 26.0143 10.664 26.0143C10.7074 27.4421 11.0755 28.7186 12.0643 29.7751C13.0159 30.7918 14.5299 31.124 15.8655 31.1606C18.4319 31.231 23.5687 31.231 26.1352 31.1606C27.4707 31.124 28.9848 30.7915 29.9363 29.7751C30.9251 28.7186 31.2988 27.4422 31.3367 26.0143V15.9858C31.2988 14.5579 30.9251 13.2815 29.9363 12.225C28.9844 11.2083 27.4704 10.8762 26.1352 10.8395ZM21 27.6754C19.6797 27.6754 18.3891 27.2839 17.2914 26.5504C16.1937 25.8169 15.3381 24.7744 14.8328 23.5546C14.3276 22.3349 14.1954 20.9927 14.453 19.6978C14.7105 18.4029 15.3463 17.2135 16.2798 16.2799C17.2134 15.3464 18.4028 14.7106 19.6977 14.4531C20.9926 14.1955 22.3348 14.3277 23.5545 14.8329C24.7743 15.3382 25.8168 16.1937 26.5503 17.2915C27.2838 18.3892 27.6753 19.6798 27.6753 21.0001C27.6753 22.7705 26.972 24.4684 25.7201 25.7202C24.4683 26.9721 22.7704 27.6754 21 27.6754ZM27.7037 15.7027C27.4396 15.7026 27.1815 15.6243 26.962 15.4775C26.7425 15.3308 26.5715 15.1222 26.4705 14.8783C26.3695 14.6343 26.3431 14.3659 26.3946 14.107C26.4462 13.848 26.5734 13.6101 26.7601 13.4235C26.9468 13.2368 27.1847 13.1097 27.4437 13.0582C27.7026 13.0067 27.971 13.0332 28.215 13.1342C28.4589 13.2353 28.6674 13.4064 28.8141 13.6259C28.9608 13.8455 29.0391 14.1036 29.0391 14.3676C29.0391 14.543 29.0045 14.7166 28.9374 14.8786C28.8703 15.0406 28.7719 15.1878 28.6479 15.3118C28.5239 15.4357 28.3767 15.5341 28.2147 15.6011C28.0527 15.6682 27.879 15.7027 27.7037 15.7027Z" fill="#F5F5F5"/>
</g>
<defs>
<clipPath id="clip0_52_1053">
<rect width="42" height="42" fill="white"/>
</clipPath>
</defs>
</svg>
