<svg width="42" height="42" viewBox="0 0 42 42" fill="none" xmlns="http://www.w3.org/2000/svg">
<g clip-path="url(#clip0_52_1049)">
<path d="M21 9.15527e-05C16.8466 9.15527e-05 12.7865 1.23172 9.33303 3.53923C5.8796 5.84674 3.18798 9.12649 1.59854 12.9637C0.00909901 16.801 -0.406771 21.0234 0.403519 25.097C1.21381 29.1706 3.21386 32.9124 6.15077 35.8493C9.08767 38.7862 12.8295 40.7863 16.9031 41.5966C20.9767 42.4069 25.1991 41.991 29.0364 40.4016C32.8736 38.8121 36.1534 36.1205 38.4609 32.6671C40.7684 29.2136 42 25.1535 42 21.0001C42 15.4305 39.7875 10.0891 35.8493 6.15085C31.911 2.21259 26.5696 9.15527e-05 21 9.15527e-05ZM14.8934 32.0527H10.3121V17.2947H14.8934V32.0527ZM12.6 15.2804C12.0728 15.2825 11.5567 15.1284 11.1171 14.8373C10.6774 14.5462 10.3339 14.1314 10.13 13.6452C9.92612 13.1589 9.87093 12.6232 9.97145 12.1056C10.072 11.588 10.3237 11.1118 10.6948 10.7373C11.0658 10.3627 11.5396 10.1066 12.0563 10.0012C12.5729 9.8959 13.1091 9.94609 13.5973 10.1455C14.0854 10.3448 14.5034 10.6844 14.7985 11.1213C15.0937 11.5582 15.2527 12.0728 15.2554 12.6001C15.2569 13.3071 14.9784 13.9859 14.4808 14.4882C13.9832 14.9904 13.307 15.2752 12.6 15.2804ZM32.0526 32.0527H27.4741V24.8685C27.4741 23.1554 27.4409 20.9586 25.0922 20.9586C22.7436 20.9586 22.3291 22.821 22.3291 24.7442V32.0527H17.7671V17.2947H22.1633V19.3063H22.2269C22.8375 18.1458 24.3324 16.9217 26.5622 16.9217C31.1988 16.9217 32.0526 19.9777 32.0526 23.9456V32.0527Z" fill="#F5F5F5"/>
</g>
<defs>
<clipPath id="clip0_52_1049">
<rect width="42" height="42" fill="white"/>
</clipPath>
</defs>
</svg>
