<svg width="42" height="42" viewBox="0 0 42 42" fill="none" xmlns="http://www.w3.org/2000/svg">
<g clip-path="url(#clip0_52_1051)">
<path d="M21 9.15527e-05C9.40379 9.15527e-05 0 9.40388 0 21.0001C0 32.5963 9.40379 42.0001 21 42.0001C32.5962 42.0001 42 32.5963 42 21.0001C42 9.40388 32.5962 9.15527e-05 21 9.15527e-05ZM30.5884 16.3737C30.5977 16.5803 30.6021 16.788 30.6021 16.9966C30.6021 23.3659 25.754 30.7105 16.8879 30.7109C14.1658 30.7109 11.6327 29.913 9.4996 28.5457C9.87675 28.5902 10.2606 28.6123 10.6493 28.6123C12.9077 28.6123 14.9861 27.842 16.636 26.5491C14.5259 26.51 12.7469 25.1164 12.1329 23.2012C12.4268 23.2576 12.7289 23.2883 13.0388 23.2883C13.4788 23.2883 13.9049 23.229 14.31 23.1185C12.1044 22.6769 10.443 20.7277 10.443 18.3937C10.443 18.3719 10.443 18.3523 10.4436 18.3322C11.0931 18.6933 11.8359 18.9105 12.6267 18.9349C11.3325 18.0713 10.4817 16.5951 10.4817 14.9227C10.4817 14.0396 10.7205 13.2122 11.1345 12.4999C13.5114 15.4165 17.0638 17.3346 21.0699 17.5362C20.9872 17.1831 20.9446 16.8152 20.9446 16.4371C20.9446 13.7762 23.1033 11.6174 25.7652 11.6174C27.1517 11.6174 28.404 12.2035 29.2836 13.1405C30.3817 12.9239 31.4128 12.5227 32.3443 11.9706C31.9839 13.0956 31.2199 14.0396 30.2247 14.6366C31.1998 14.5199 32.129 14.2614 32.9926 13.8775C32.3475 14.8442 31.5295 15.6934 30.5884 16.3737Z" fill="#F5F5F5"/>
</g>
<defs>
<clipPath id="clip0_52_1051">
<rect width="42" height="42" fill="white"/>
</clipPath>
</defs>
</svg>
